# xmcd CD database file
# Copyright (C) 1996 Ti Kan
#
# Track frame offsets:
#  150
#  16527
#  33265
#  55452
#  82407
#  98445
#  129582
#  143780
#  168387
#  189072
#  206842
#  220732
#  237852
#
# Disc length: 3461 seconds
#
# Revision: 2
# Processed by: cddbd v1.4PL0 Copyright (c) Steve Scherf et al.
# Submitted via: Gronk 1.4
#
DISCID=a90d830d
DTITLE=Robert Ward - Black Bottom
DYEAR=1900
DGENRE=blues
TTITLE0=Lonely Man
TTITLE1=Toehold
TTITLE2=Soul Stroll
TTITLE3=Silver And Gold
TTITLE4=Beyond This Planet
TTITLE5=Black Bottom
TTITLE6=Yonder Goes My Baby
TTITLE7=You Ought To Stop It
TTITLE8=Help The Needy
TTITLE9=Meat Off The Bone
TTITLE10=Two Steps from the Blues
TTITLE11=Titty Britches
TTITLE12=Something Good Drivin' the Devil Nuts
EXTD=Black Top CD BT-1123\n\nSubmitted 6/24/97\n[Jmccoy@efn.org]
EXTT0=
EXTT1=
EXTT2=
EXTT3=
EXTT4=
EXTT5=
EXTT6=
EXTT7=
EXTT8=
EXTT9=
EXTT10=
EXTT11=
EXTT12=
PLAYORDER=
